<svg width="402" height="193" viewBox="0 0 402 193" fill="none" xmlns="http://www.w3.org/2000/svg">
<path d="M402 158C402 177.33 312.009 193 201 193C89.9908 193 0 177.33 0 158C23.5 158 89.9908 158 201 158C312.009 158 374.5 158 402 158Z" fill="#C3E8FD"/>
<rect width="402" height="159" fill="url(#paint0_linear_60_550)"/>
<path d="M72.7891 130H69.8398V115.908H72.7891V122.188H72.9648L78.1699 115.908H81.4512L76.3145 122.09L81.8125 130H78.2773L74.1855 124.102L72.7891 125.752V130ZM87.6914 130.234C84.3809 130.234 82.3887 128.135 82.3887 124.609C82.3887 121.123 84.4102 118.994 87.6914 118.994C90.9727 118.994 92.9941 121.113 92.9941 124.609C92.9941 128.135 91.002 130.234 87.6914 130.234ZM87.6914 127.91C89.2051 127.91 90.0742 126.699 90.0742 124.609C90.0742 122.539 89.1953 121.318 87.6914 121.318C86.1777 121.318 85.3086 122.539 85.3086 124.609C85.3086 126.709 86.168 127.91 87.6914 127.91ZM109.791 119.229L106.93 130H103.902L101.979 122.568H101.803L99.8984 130H96.9102L94.0391 119.229H96.9199L98.5215 126.953H98.6973L100.582 119.229H103.297L105.191 126.953H105.367L106.969 119.229H109.791ZM111.92 130V115.117H114.762V130H111.92ZM122.496 130.234C119.186 130.234 117.193 128.135 117.193 124.609C117.193 121.123 119.215 118.994 122.496 118.994C125.777 118.994 127.799 121.113 127.799 124.609C127.799 128.135 125.807 130.234 122.496 130.234ZM122.496 127.91C124.01 127.91 124.879 126.699 124.879 124.609C124.879 122.539 124 121.318 122.496 121.318C120.982 121.318 120.113 122.539 120.113 124.609C120.113 126.709 120.973 127.91 122.496 127.91ZM134.898 130.234C131.588 130.234 129.596 128.135 129.596 124.609C129.596 121.123 131.617 118.994 134.898 118.994C138.18 118.994 140.201 121.113 140.201 124.609C140.201 128.135 138.209 130.234 134.898 130.234ZM134.898 127.91C136.412 127.91 137.281 126.699 137.281 124.609C137.281 122.539 136.402 121.318 134.898 121.318C133.385 121.318 132.516 122.539 132.516 124.609C132.516 126.709 133.375 127.91 134.898 127.91ZM142.525 130V119.229H145.279V120.957H145.455C145.953 119.746 147.047 118.994 148.639 118.994C151.031 118.994 152.32 120.459 152.32 123.037V130H149.479V123.711C149.479 122.227 148.844 121.445 147.496 121.445C146.178 121.445 145.367 122.373 145.367 123.789V130H142.525ZM166.891 130H163.941V118.428H159.713V115.908H171.119V118.428H166.891V130ZM172.311 130V119.229H175.064V120.947H175.24C175.523 119.873 176.637 119.053 178.004 119.053C178.395 119.053 178.873 119.102 179.117 119.189V121.777C178.893 121.689 178.229 121.602 177.77 121.602C176.217 121.602 175.152 122.52 175.152 124.033V130H172.311ZM190.768 119.229V130H188.014V128.271H187.838C187.33 129.521 186.324 130.234 184.693 130.234C182.369 130.234 180.924 128.75 180.924 126.25V119.229H183.766V125.518C183.766 127.002 184.439 127.764 185.748 127.764C187.164 127.764 187.926 126.875 187.926 125.439V119.229H190.768ZM198.277 121.172C196.959 121.172 196.031 122.09 195.934 123.486H200.523C200.465 122.061 199.605 121.172 198.277 121.172ZM200.582 126.934H203.229C202.799 128.965 200.943 130.234 198.307 130.234C195.025 130.234 193.092 128.164 193.092 124.668C193.092 121.162 195.064 118.994 198.268 118.994C201.441 118.994 203.316 121.016 203.316 124.434V125.303H195.924V125.449C195.963 127.051 196.9 128.047 198.385 128.047C199.508 128.047 200.279 127.646 200.582 126.934ZM220.309 127.432V130H211.09V115.908H214.039V127.432H220.309ZM222.721 130V119.229H225.562V130H222.721ZM224.146 117.725C223.121 117.725 222.467 117.129 222.467 116.289C222.467 115.439 223.121 114.854 224.146 114.854C225.162 114.854 225.826 115.439 225.826 116.289C225.826 117.129 225.162 117.725 224.146 117.725ZM233.229 127.598C234.771 127.598 235.689 126.416 235.689 124.521C235.689 122.627 234.762 121.436 233.229 121.436C231.695 121.436 230.807 122.627 230.807 124.512C230.807 126.416 231.686 127.598 233.229 127.598ZM233.189 134.082C230.328 134.082 228.434 132.822 228.258 130.928H231.07C231.217 131.592 232.018 132.012 233.248 132.012C234.771 132.012 235.66 131.309 235.66 130.098V128.105H235.484C234.889 129.238 233.756 129.844 232.242 129.844C229.557 129.844 227.887 127.764 227.887 124.521C227.887 121.182 229.566 119.053 232.301 119.053C233.756 119.053 234.996 119.775 235.572 120.957H235.748V119.229H238.502V129.961C238.502 132.49 236.441 134.082 233.189 134.082ZM241.451 130V115.117H244.244V120.996H244.42C244.918 119.766 246.09 119.023 247.672 119.023C249.986 119.023 251.363 120.479 251.363 123.066V130H248.521V123.74C248.521 122.246 247.828 121.475 246.539 121.475C245.113 121.475 244.293 122.422 244.293 123.818V130H241.451ZM254.938 116.67H257.779V119.336H260.016V121.572H257.779V126.416C257.779 127.354 258.209 127.783 259.176 127.783C259.547 127.783 259.742 127.773 260.016 127.744V129.912C259.664 129.98 259.137 130.039 258.59 130.039C255.973 130.039 254.938 129.189 254.938 127.09V121.572H253.258V119.336H254.938V116.67ZM267.193 126.084H270.045C270.182 127.227 271.334 127.959 272.994 127.959C274.527 127.959 275.611 127.217 275.611 126.152C275.611 125.254 274.908 124.736 273.18 124.365L271.344 123.975C268.775 123.438 267.516 122.1 267.516 119.951C267.516 117.295 269.654 115.547 272.906 115.547C276.012 115.547 278.209 117.285 278.297 119.795H275.523C275.387 118.682 274.352 117.939 272.926 117.939C271.451 117.939 270.475 118.623 270.475 119.697C270.475 120.566 271.148 121.064 272.799 121.416L274.498 121.777C277.33 122.373 278.551 123.594 278.551 125.781C278.551 128.623 276.373 130.361 272.838 130.361C269.479 130.361 267.301 128.711 267.193 126.084ZM290.592 123.027H287.936C287.74 122.002 287.008 121.328 285.797 121.328C284.264 121.328 283.404 122.471 283.404 124.59C283.404 126.738 284.273 127.9 285.797 127.9C286.959 127.9 287.721 127.334 287.936 126.27H290.592C290.357 128.682 288.6 130.234 285.797 130.234C282.438 130.234 280.533 128.203 280.533 124.59C280.533 121.016 282.428 118.994 285.797 118.994C288.648 118.994 290.357 120.576 290.592 123.027ZM292.916 130V115.117H295.709V120.996H295.885C296.383 119.766 297.555 119.023 299.137 119.023C301.451 119.023 302.828 120.479 302.828 123.066V130H299.986V123.74C299.986 122.246 299.293 121.475 298.004 121.475C296.578 121.475 295.758 122.422 295.758 123.818V130H292.916ZM310.367 130.234C307.057 130.234 305.064 128.135 305.064 124.609C305.064 121.123 307.086 118.994 310.367 118.994C313.648 118.994 315.67 121.113 315.67 124.609C315.67 128.135 313.678 130.234 310.367 130.234ZM310.367 127.91C311.881 127.91 312.75 126.699 312.75 124.609C312.75 122.539 311.871 121.318 310.367 121.318C308.854 121.318 307.984 122.539 307.984 124.609C307.984 126.709 308.844 127.91 310.367 127.91ZM322.77 130.234C319.459 130.234 317.467 128.135 317.467 124.609C317.467 121.123 319.488 118.994 322.77 118.994C326.051 118.994 328.072 121.113 328.072 124.609C328.072 128.135 326.08 130.234 322.77 130.234ZM322.77 127.91C324.283 127.91 325.152 126.699 325.152 124.609C325.152 122.539 324.273 121.318 322.77 121.318C321.256 121.318 320.387 122.539 320.387 124.609C320.387 126.709 321.246 127.91 322.77 127.91ZM330.494 130V115.117H333.336V130H330.494Z" fill="#16297C"/>
<g clip-path="url(#clip0_60_550)">
<path d="M201.725 68.5303L205.203 77.0982C203.861 84.2855 202.457 98.9791 201.583 99.9971C200.714 98.689 197.64 78.8065 197.637 77.6638C197.631 75.2854 200.485 71.3785 201.08 68.8958L201.725 68.5274V68.5303Z" fill="#16297C"/>
<path d="M235 66.645C232.094 67.2251 217.171 69.4497 211.898 69.5484L204.058 66.2071C203.878 65.9663 207.998 64.2087 208.42 64.0404C209.41 63.6431 212.063 62.4481 212.915 62.4394C215.216 62.4104 231.011 65.8735 235 66.6479V66.645Z" fill="#16297C"/>
<path d="M198.823 66.2071C198.453 66.2129 198.076 66.268 197.745 66.4391C196.37 67.1497 191.192 69.7079 189.963 69.7166C188.45 69.7253 185.762 68.8088 184.12 68.5622C178.916 67.7791 173.663 67.1555 168.462 66.2042C167.983 66.1171 167.962 66.3927 168.023 65.6357L189.963 62.4249C191.483 62.6192 192.901 63.3327 194.325 63.8896C195.748 64.4465 197.742 65.2267 198.823 66.2129V66.2071Z" fill="#16297C"/>
<path d="M201.725 63.3095C201.408 63.5474 200.133 60.7571 199.927 60.3221C199.296 58.9792 198.808 57.3984 198.093 56.0613C198.488 48.9176 200.697 33.1972 201.295 33C201.699 34.3458 204.52 48.8016 205.224 54.7619L201.725 63.3066V63.3095Z" fill="#16297C"/>
<path d="M219.162 83.9026C218.575 84.4769 213.348 80.8194 212.45 80.309C210.529 79.2155 208.478 78.2642 206.514 77.2432C204.759 74.4675 204.503 71.1668 203.184 68.2432C203.634 67.8922 210.855 70.7926 211.924 71.2625L219.162 83.9026Z" fill="#16297C"/>
<path d="M199.404 68.2432L196.422 76.579C192.59 78.2613 184.347 83.6909 183.713 83.6126C183.559 81.3502 189.835 71.8426 190.547 71.1494C191.195 70.5171 198.968 67.8516 199.401 68.2432H199.404Z" fill="#16297C"/>
<path d="M203.474 64.1767L206.743 55.5509L217.924 49.4483L218.868 49.8225L212.185 61.4184L203.474 64.1767Z" fill="#16297C"/>
<path d="M199.404 63.8867C199.061 64.2 191.669 61.3923 190.707 60.8239C189.066 57.3578 186.381 53.9266 184.716 50.5621C184.483 50.0922 184.213 49.6572 184.297 49.0974C184.518 48.8741 186.761 49.9385 187.171 50.1416C188.755 50.9247 194.685 54.2167 195.777 55.1825C197.907 57.0649 198.244 61.372 199.404 63.8867Z" fill="#16297C"/>
</g>
<defs>
<linearGradient id="paint0_linear_60_550" x1="201" y1="0" x2="201" y2="159" gradientUnits="userSpaceOnUse">
<stop stop-color="#7CC4EB"/>
<stop offset="1" stop-color="#C3E8FD"/>
</linearGradient>
<clipPath id="clip0_60_550">
<rect width="67" height="67" fill="white" transform="translate(168 33)"/>
</clipPath>
</defs>
</svg>
