<?xml version="1.0" encoding="UTF-8"?>
<svg id="Layer_1" xmlns="http://www.w3.org/2000/svg" version="1.1" viewBox="0 0 512 512">
  <!-- Generator: Adobe Illustrator 29.1.0, SVG Export Plug-In . SVG Version: 2.1.0 Build 142)  -->
  <polygon points="256 18 284.36 180.32 256 237.86 227.64 180.32 256 18"/>
  <polygon points="375.88 136.12 329.93 223.36 268.83 243.17 289.32 182.37 375.88 136.12"/>
  <polygon points="494 256 331.68 284.36 274.14 256 331.68 227.64 494 256"/>
  <polygon points="375.88 375.88 288.64 329.93 268.83 268.83 329.63 289.32 375.88 375.88"/>
  <polygon points="256 494 227.64 331.68 256 274.14 284.36 331.68 256 494"/>
  <polygon points="136.12 375.88 182.07 288.64 243.17 268.83 222.68 329.63 136.12 375.88"/>
  <polygon points="18 256 180.32 227.64 237.86 256 180.32 284.36 18 256"/>
  <polygon points="136.12 136.12 223.36 182.07 243.17 243.17 182.37 222.68 136.12 136.12"/>
</svg>